<svg width="104" height="104" viewBox="0 0 104 104" fill="none" xmlns="http://www.w3.org/2000/svg">
<path d="M96 10H8C3.58172 10 0 13.5817 0 18V96C0 100.418 3.58172 104 8 104H96C100.418 104 104 100.418 104 96V18C104 13.5817 100.418 10 96 10Z" fill="url(#paint0_linear_6_44)"/>
<path d="M96 0H8C3.58172 0 0 3.58172 0 8V88C0 92.4183 3.58172 96 8 96H96C100.418 96 104 92.4183 104 88V8C104 3.58172 100.418 0 96 0Z" fill="#DEDDDA"/>
<path d="M96 92H8C5.79086 92 4 90.2092 4 88V8C4 5.79088 5.79086 4.00003 8 4.00003H96C98.2091 4.00003 100 5.79088 100 8V88C100 90.2092 98.2091 92 96 92Z" fill="#183005"/>
<path opacity="0.09" d="M10 88H94C95.1046 88 96 87.1046 96 86V12C96 10.8954 95.1046 10 94 10H10C8.89543 10 8 10.8954 8 12V86C8 87.1046 8.89543 88 10 88Z" fill="url(#paint1_radial_6_44)"/>
<path d="M26.5399 9.32213V8.23952H31.1386V9.32213H26.5399ZM32.2846 9.32213V8.23952H36.8833V9.32213H32.2846ZM38.0292 9.32213V8.23952H42.6279V9.32213H38.0292ZM43.7739 9.32213V8.23952H48.3726V9.32213H43.7739ZM49.5185 9.32213V8.23952H54.1172V9.32213H49.5185ZM55.2631 9.32213V8.23952H59.8619V9.32213H55.2631ZM61.0078 9.32213V8.23952H65.6065V9.32213H61.0078ZM66.7524 9.32213V8.23952H71.3511V9.32213H66.7524ZM72.4971 9.32213V8.23952H77.0958V9.32213H72.4971ZM20.7953 22.0539L24.1485 13.0481H25.394L22.0408 22.0539H20.7953ZM26.5362 22.3221V21.2395H36.8833V22.3221H26.5362ZM38.7957 18.3941V17.2827H41.8615V18.3941H38.7957ZM44.5403 18.3941V17.2827H47.6061V18.3941H44.5403ZM50.285 18.3941V17.2827H53.3508V18.3941H50.285ZM56.0296 18.3941V17.2827H59.0954V18.3941H56.0296ZM61.0844 17.7426L62.7419 14.0061H63.8916L65.5299 17.7426H64.4089L63.5275 15.539C63.4764 15.3985 63.4317 15.2676 63.3934 15.1462C63.3614 15.0249 63.3391 14.9323 63.3263 14.8684C63.3135 14.9323 63.2848 15.0249 63.2401 15.1462C63.2018 15.2676 63.157 15.3985 63.106 15.539L62.1958 17.7426H61.0844ZM67.5189 18.3941V17.2827H70.5847V18.3941H67.5189ZM72.4971 22.3221V21.2395H77.0958V22.3221H72.4971ZM81.5854 22.0539L78.2417 13.0481H79.4872L82.8309 22.0539H81.5854ZM19.1224 35.1497C18.1516 34.8942 17.4011 34.4439 16.871 33.7988C16.3408 33.1473 16.0758 32.3553 16.0758 31.4228V29.6887C16.0758 29.0755 16.1971 28.5199 16.4398 28.0217C16.6889 27.5171 17.0402 27.0892 17.4937 26.7379C17.9536 26.3802 18.4965 26.1183 19.1224 25.9523V27.1307C18.7456 27.2201 18.4166 27.383 18.1356 27.6193C17.861 27.8556 17.6502 28.1494 17.5033 28.5007C17.3564 28.852 17.2829 29.248 17.2829 29.6887V31.4228C17.2829 31.8507 17.3564 32.2404 17.5033 32.5916C17.6502 32.9365 17.861 33.2272 18.1356 33.4635C18.4166 33.6934 18.7456 33.8531 19.1224 33.9425V35.1497ZM21.3222 35.1497V33.9425C21.7054 33.8531 22.0344 33.6934 22.309 33.4635C22.5837 33.2272 22.7944 32.9365 22.9413 32.5916C23.0883 32.2404 23.1617 31.8507 23.1617 31.4228V29.6887C23.1617 29.248 23.0883 28.852 22.9413 28.5007C22.7944 28.1494 22.5837 27.8556 22.309 27.6193C22.0344 27.383 21.7054 27.2201 21.3222 27.1307V25.9523C21.9545 26.1183 22.4974 26.3802 22.9509 26.7379C23.4044 27.0892 23.7525 27.5171 23.9952 28.0217C24.2443 28.5199 24.3689 29.0755 24.3689 29.6887V31.4228C24.3689 32.3553 24.1038 33.1473 23.5737 33.7988C23.0435 34.4439 22.2931 34.8942 21.3222 35.1497ZM38.0292 35.0539L41.3824 26.0481H42.6279L39.2747 35.0539H38.0292ZM47.1175 35.0539L43.7739 26.0481H45.0193L48.363 35.0539H47.1175ZM55.2631 35.0539L58.6164 26.0481H59.8619L56.5086 35.0539H55.2631ZM64.3514 35.0539L61.0078 26.0481H62.2533L65.5969 35.0539H64.3514ZM82.3135 35.1497C81.3427 34.8942 80.5922 34.4439 80.062 33.7988C79.5319 33.1473 79.2669 32.3553 79.2669 31.4228V29.6887C79.2669 29.0755 79.3882 28.5199 79.6309 28.0217C79.88 27.5171 80.2313 27.0892 80.6848 26.7379C81.1447 26.3802 81.6876 26.1183 82.3135 25.9523V27.1307C81.9367 27.2201 81.6077 27.383 81.3267 27.6193C81.052 27.8556 80.8413 28.1494 80.6944 28.5007C80.5475 28.852 80.474 29.248 80.474 29.6887V31.4228C80.474 31.8507 80.5475 32.2404 80.6944 32.5916C80.8413 32.9365 81.052 33.2272 81.3267 33.4635C81.6077 33.6934 81.9367 33.8531 82.3135 33.9425V35.1497ZM84.5133 35.1497V33.9425C84.8965 33.8531 85.2255 33.6934 85.5001 33.4635C85.7748 33.2272 85.9855 32.9365 86.1324 32.5916C86.2793 32.2404 86.3528 31.8507 86.3528 31.4228V29.6887C86.3528 29.248 86.2793 28.852 86.1324 28.5007C85.9855 28.1494 85.7748 27.8556 85.5001 27.6193C85.2255 27.383 84.8965 27.2201 84.5133 27.1307V25.9523C85.1456 26.1183 85.6885 26.3802 86.142 26.7379C86.5955 27.0892 86.9436 27.5171 87.1863 28.0217C87.4354 28.5199 87.5599 29.0755 87.5599 29.6887V31.4228C87.5599 32.3553 87.2949 33.1473 86.7648 33.7988C86.2346 34.4439 85.4841 34.8942 84.5133 35.1497ZM19.1224 48.1497C18.1516 47.8942 17.4011 47.4439 16.871 46.7988C16.3408 46.1473 16.0758 45.3553 16.0758 44.4228V42.6887C16.0758 42.0755 16.1971 41.5199 16.4398 41.0217C16.6889 40.5171 17.0402 40.0892 17.4937 39.7379C17.9536 39.3802 18.4965 39.1183 19.1224 38.9523V40.1307C18.7456 40.2201 18.4166 40.383 18.1356 40.6193C17.861 40.8556 17.6502 41.1494 17.5033 41.5007C17.3564 41.852 17.2829 42.248 17.2829 42.6887V44.4228C17.2829 44.8507 17.3564 45.2404 17.5033 45.5916C17.6502 45.9365 17.861 46.2272 18.1356 46.4635C18.4166 46.6934 18.7456 46.8531 19.1224 46.9425V48.1497ZM21.3222 48.1497V46.9425C21.7054 46.8531 22.0344 46.6934 22.309 46.4635C22.5837 46.2272 22.7944 45.9365 22.9413 45.5916C23.0883 45.2404 23.1617 44.8507 23.1617 44.4228V42.6887C23.1617 42.248 23.0883 41.852 22.9413 41.5007C22.7944 41.1494 22.5837 40.8556 22.309 40.6193C22.0344 40.383 21.7054 40.2201 21.3222 40.1307V38.9523C21.9545 39.1183 22.4974 39.3802 22.9509 39.7379C23.4044 40.0892 23.7525 40.5171 23.9952 41.0217C24.2443 41.5199 24.3689 42.0755 24.3689 42.6887V44.4228C24.3689 45.3553 24.1038 46.1473 23.5737 46.7988C23.0435 47.4439 22.2931 47.8942 21.3222 48.1497ZM41.3729 48.0539L38.0292 39.0481H39.2747L42.6183 48.0539H41.3729ZM43.7739 48.0539L47.1271 39.0481H48.3726L45.0193 48.0539H43.7739ZM58.6068 48.0539L55.2631 39.0481H56.5086L59.8523 48.0539H58.6068ZM61.0078 48.0539L64.361 39.0481H65.6065L62.2533 48.0539H61.0078ZM82.3135 48.1497C81.3427 47.8942 80.5922 47.4439 80.062 46.7988C79.5319 46.1473 79.2669 45.3553 79.2669 44.4228V42.6887C79.2669 42.0755 79.3882 41.5199 79.6309 41.0217C79.88 40.5171 80.2313 40.0892 80.6848 39.7379C81.1447 39.3802 81.6876 39.1183 82.3135 38.9523V40.1307C81.9367 40.2201 81.6077 40.383 81.3267 40.6193C81.052 40.8556 80.8413 41.1494 80.6944 41.5007C80.5475 41.852 80.474 42.248 80.474 42.6887V44.4228C80.474 44.8507 80.5475 45.2404 80.6944 45.5916C80.8413 45.9365 81.052 46.2272 81.3267 46.4635C81.6077 46.6934 81.9367 46.8531 82.3135 46.9425V48.1497ZM84.5133 48.1497V46.9425C84.8965 46.8531 85.2255 46.6934 85.5001 46.4635C85.7748 46.2272 85.9855 45.9365 86.1324 45.5916C86.2793 45.2404 86.3528 44.8507 86.3528 44.4228V42.6887C86.3528 42.248 86.2793 41.852 86.1324 41.5007C85.9855 41.1494 85.7748 40.8556 85.5001 40.6193C85.2255 40.383 84.8965 40.2201 84.5133 40.1307V38.9523C85.1456 39.1183 85.6885 39.3802 86.142 39.7379C86.5955 40.0892 86.9436 40.5171 87.1863 41.0217C87.4354 41.5199 87.5599 42.0755 87.5599 42.6887V44.4228C87.5599 45.3553 87.2949 46.1473 86.7648 46.7988C86.2346 47.4439 85.4841 47.8942 84.5133 48.1497ZM19.1224 61.1497C18.1516 60.8942 17.4011 60.4439 16.871 59.7988C16.3408 59.1473 16.0758 58.3553 16.0758 57.4228V55.6887C16.0758 55.0755 16.1971 54.5199 16.4398 54.0217C16.6889 53.5171 17.0402 53.0892 17.4937 52.7379C17.9536 52.3802 18.4965 52.1183 19.1224 51.9523V53.1307C18.7456 53.2201 18.4166 53.383 18.1356 53.6193C17.861 53.8556 17.6502 54.1494 17.5033 54.5007C17.3564 54.852 17.2829 55.248 17.2829 55.6887V57.4228C17.2829 57.8507 17.3564 58.2404 17.5033 58.5916C17.6502 58.9365 17.861 59.2272 18.1356 59.4635C18.4166 59.6934 18.7456 59.8531 19.1224 59.9425V61.1497ZM21.3222 61.1497V59.9425C21.7054 59.8531 22.0344 59.6934 22.309 59.4635C22.5837 59.2272 22.7944 58.9365 22.9413 58.5916C23.0883 58.2404 23.1617 57.8507 23.1617 57.4228V55.6887C23.1617 55.248 23.0883 54.852 22.9413 54.5007C22.7944 54.1494 22.5837 53.8556 22.309 53.6193C22.0344 53.383 21.7054 53.2201 21.3222 53.1307V51.9523C21.9545 52.1183 22.4974 52.3802 22.9509 52.7379C23.4044 53.0892 23.7525 53.5171 23.9952 54.0217C24.2443 54.5199 24.3689 55.0755 24.3689 55.6887V57.4228C24.3689 58.3553 24.1038 59.1473 23.5737 59.7988C23.0435 60.4439 22.2931 60.8942 21.3222 61.1497ZM33.051 57.3941V56.2827H36.1168V57.3941H33.051ZM38.0292 61.3221V60.2395H42.6279V61.3221H38.0292ZM43.7739 61.3221V60.2395H48.3726V61.3221H43.7739ZM49.5185 61.3221V60.2395H54.1172V61.3221H49.5185ZM55.2631 61.3221V60.2395H59.8619V61.3221H55.2631ZM61.0078 61.3221V60.2395H65.6065V61.3221H61.0078ZM67.5189 57.3941V56.2827H70.5847V57.3941H67.5189ZM82.3135 61.1497C81.3427 60.8942 80.5922 60.4439 80.062 59.7988C79.5319 59.1473 79.2669 58.3553 79.2669 57.4228V55.6887C79.2669 55.0755 79.3882 54.5199 79.6309 54.0217C79.88 53.5171 80.2313 53.0892 80.6848 52.7379C81.1447 52.3802 81.6876 52.1183 82.3135 51.9523V53.1307C81.9367 53.2201 81.6077 53.383 81.3267 53.6193C81.052 53.8556 80.8413 54.1494 80.6944 54.5007C80.5475 54.852 80.474 55.248 80.474 55.6887V57.4228C80.474 57.8507 80.5475 58.2404 80.6944 58.5916C80.8413 58.9365 81.052 59.2272 81.3267 59.4635C81.6077 59.6934 81.9367 59.8531 82.3135 59.9425V61.1497ZM84.5133 61.1497V59.9425C84.8965 59.8531 85.2255 59.6934 85.5001 59.4635C85.7748 59.2272 85.9855 58.9365 86.1324 58.5916C86.2793 58.2404 86.3528 57.8507 86.3528 57.4228V55.6887C86.3528 55.248 86.2793 54.852 86.1324 54.5007C85.9855 54.1494 85.7748 53.8556 85.5001 53.6193C85.2255 53.383 84.8965 53.2201 84.5133 53.1307V51.9523C85.1456 52.1183 85.6885 52.3802 86.142 52.7379C86.5955 53.0892 86.9436 53.5171 87.1863 54.0217C87.4354 54.5199 87.5599 55.0755 87.5599 55.6887V57.4228C87.5599 58.3553 87.2949 59.1473 86.7648 59.7988C86.2346 60.4439 85.4841 60.8942 84.5133 61.1497ZM24.1389 74.0539L20.7953 65.0481H22.0408L25.3844 74.0539H24.1389ZM26.5399 74.3221V73.2395H31.1386V74.3221H26.5399ZM32.2846 74.3221V73.2395H36.8833V74.3221H32.2846ZM38.0292 74.3221V73.2395H42.6279V74.3221H38.0292ZM61.0078 74.3221V73.2395H65.6065V74.3221H61.0078ZM66.7524 74.3221V73.2395H71.3511V74.3221H66.7524ZM72.4971 74.3221V73.2395H77.0958V74.3221H72.4971ZM78.2417 74.0539L81.5949 65.0481H82.8404L79.4872 74.0539H78.2417ZM25.8214 87.0539L29.1746 78.0481H30.4201L27.0669 87.0539H25.8214ZM21.5101 87.0539L24.8633 78.0481H26.1088L22.7556 87.0539H21.5101ZM38.0292 87.0539L41.3824 78.0481H42.6279L39.2747 87.0539H38.0292ZM64.3514 87.0539L61.0078 78.0481H62.2533L65.5969 87.0539H64.3514ZM75.8407 87.0539L72.4971 78.0481H73.7426L77.0862 87.0539H75.8407ZM81.5854 87.0539L78.2417 78.0481H79.4872L82.8309 87.0539H81.5854Z" fill="#97FF3D"/>
<defs>
<linearGradient id="paint0_linear_6_44" x1="0" y1="52" x2="104" y2="52" gradientUnits="userSpaceOnUse">
<stop stop-color="#77767B"/>
<stop offset="0.05" stop-color="#C0BFBC"/>
<stop offset="0.1" stop-color="#9A9996"/>
<stop offset="0.899999" stop-color="#9A9996"/>
<stop offset="0.95" stop-color="#C0BFBC"/>
<stop offset="1" stop-color="#77767B"/>
</linearGradient>
<radialGradient id="paint1_radial_6_44" cx="0" cy="0" r="1" gradientUnits="userSpaceOnUse" gradientTransform="translate(52 84) scale(208 72)">
<stop stop-color="white"/>
<stop offset="1" stop-color="white" stop-opacity="0.0941176"/>
</radialGradient>
</defs>
</svg>
