<svg width="60" height="66" viewBox="0 0 60 66" fill="none" xmlns="http://www.w3.org/2000/svg">
<g clip-path="url(#clip0_3_2)">
<path d="M7.00408 8.49C8.14286 5.88 12.049 6.49 14.6939 6.32C25.7265 6.5 36.7592 6.34 47.7918 6.32C49.9102 6.13 51.9551 6.94 52.9102 8.52C53.8653 11.55 52.9837 14.84 54.0122 17.8C55.702 18.74 57.8082 19.77 57.8939 21.66C58.249 23.41 56.3265 24.67 55.3592 26.06C57.7714 27.64 58.6653 30.03 57.098 32.31C57.1959 31.15 57.2939 29.98 57.4041 28.82C56.498 27.92 55.6041 27.03 54.7102 26.13C53.9265 26.1 52.3592 26.05 51.5755 26.03C50.8041 27.57 49.0531 29.17 50.0327 30.92C50.6816 33 53.6939 33.12 55.6531 33.98C54.551 33.82 52.3347 33.51 51.2327 33.35C49.0286 31.03 49.0898 28.17 51.2327 25.81C49.298 23.77 49.3837 21.3 49.9225 18.88C46.1878 17.01 42.5755 14.89 40.0653 11.9C42.2939 13.79 44.6449 15.59 47.2163 17.17C48.8939 17.96 50.7796 19.42 52.5061 17.84C54.1714 15.47 52.849 12.61 52.7878 10.05C52.898 7.96 50.5102 6.85 48.3184 6.48C39.7714 6.54 31.2245 6.63 22.6898 6.68C20.0449 6.61 17.4 6.55 14.7551 6.54C12.4041 6.74 9.63673 6.51 7.73877 7.86C6.6 11.06 6.97959 14.45 6.75918 17.74C8.05714 18.46 9.3551 19.17 10.6531 19.89C13.6286 19.27 16.6163 18.66 19.5673 17.96C23.4122 16.97 27.2449 15.98 31.0041 14.78C33.4531 13.94 35.8408 12.98 38.1796 11.95C30.0367 16.43 20.1429 17.9 10.8735 20.13C10.5551 22.91 9.89388 25.75 6.12245 26.9C11.4735 25 10.6531 30.27 9.77143 32.56C6.68571 33.78 1.56735 34.45 2.66939 38.3C2.96326 38.75 3.55102 39.67 3.83265 40.12C0.734693 38.45 2.22857 35.18 4.54286 33.63C0.47755 30.62 5.03265 26.38 2.37551 23.02C1.18775 20.66 3.99184 18.57 6.36735 17.67C6.62449 14.61 6.36735 11.52 7.00408 8.49Z" fill="#464847"/>
<path d="M7.73878 7.86C9.63674 6.51 12.4041 6.74 14.7551 6.54C15.3551 7.29 15.9429 8.04 16.5429 8.79C16.0286 10.26 15.5265 11.74 15.0122 13.22C15.7959 13.46 16.5796 13.69 17.3633 13.93C16.2612 15.78 17.6939 16.99 19.5673 17.96C16.6163 18.66 13.6286 19.27 10.6531 19.89C9.3551 19.17 8.05714 18.46 6.75919 17.74C6.97959 14.45 6.6 11.06 7.73878 7.86Z" fill="#D5D5D5"/>
<path d="M14.7551 6.54C17.4 6.55 20.0449 6.61 22.6898 6.68C24.6 7.21 26.4857 7.79 28.3714 8.36C28.0286 9.77 27.6857 11.18 27.3429 12.59C28.5551 13.32 29.7796 14.05 31.0041 14.78C27.2449 15.98 23.4122 16.97 19.5673 17.96C17.6939 16.99 16.2612 15.78 17.3633 13.93C16.5796 13.69 15.7959 13.46 15.0122 13.22C15.5265 11.74 16.0286 10.26 16.5429 8.79C15.9429 8.04 15.3551 7.29 14.7551 6.54Z" fill="#E4E4E4"/>
<path d="M22.6898 6.68C31.2245 6.63 39.7714 6.54 48.3184 6.48C48.8939 10.07 48.5755 13.7 47.2163 17.17C44.6449 15.59 42.2939 13.79 40.0653 11.9C39.9061 11.75 39.6 11.45 39.4531 11.31C39.1347 11.47 38.498 11.79 38.1796 11.95C35.8408 12.98 33.4531 13.94 31.0041 14.78C29.7796 14.05 28.5551 13.32 27.3428 12.59C27.6857 11.18 28.0286 9.77 28.3714 8.36C26.4857 7.79 24.6 7.21 22.6898 6.68Z" fill="#EFEFEF"/>
<path d="M48.3184 6.48C50.5102 6.85 52.898 7.96 52.7878 10.05C52.849 12.61 54.1714 15.47 52.5061 17.84C50.7796 19.42 48.8939 17.96 47.2163 17.17C48.5755 13.7 48.8939 10.07 48.3184 6.48Z" fill="#DCDCDC"/>
<path d="M38.1796 11.95C38.498 11.79 39.1347 11.47 39.4531 11.31C39.6 11.45 39.9061 11.75 40.0653 11.9C42.5755 14.89 46.1878 17.01 49.9225 18.88C49.3837 21.3 49.298 23.77 51.2327 25.81C49.0898 28.17 49.0286 31.03 51.2327 33.35C50.7061 33.73 49.6653 34.5 49.1388 34.88C48.1469 37.93 50.4122 40.39 53.1184 42.23C52.8857 44.6 52.5061 47.27 49.9592 48.81C41.8163 49.95 33.5265 48.2 25.3714 49.27C20.3633 49.71 15.3184 49.4 10.298 49.5C7.34694 47.26 5.80408 44.15 6.26939 40.82C7.61633 40.66 8.96327 40.5 10.298 40.28C10.2857 38.61 10.4204 36.93 10.3469 35.26C10.2 34.59 9.90613 33.23 9.77143 32.56C10.6531 30.27 11.4735 25 6.12245 26.9C9.89388 25.75 10.5551 22.91 10.8735 20.13C20.1429 17.9 30.0367 16.43 38.1796 11.95Z" fill="#EDDCCB"/>
<path d="M2.71837 23.09C2.08163 20.8 4.27347 19.19 6.14694 17.85C7.54286 18.58 8.95102 19.29 10.3592 20.01C9.97959 21.93 10.3837 25.04 7.32245 25.54C5.11837 26.33 4.23673 23.87 2.71837 23.09Z" fill="#D7D7D7"/>
<path d="M55.4082 25.74C49.1265 27.53 47.4612 18.01 53.9633 18.46C58.0653 19.29 58.0531 23.62 55.4082 25.74Z" fill="#D3D4D6"/>
<path d="M22.0163 33.17C19.2735 29.78 18.2694 23.82 23.1551 21.44C25.9224 24.83 26.8776 30.76 22.0163 33.17Z" fill="#010402"/>
<path d="M35.6816 21.46C40.3837 23.76 40.2857 30.75 35.8041 33.21C32.6327 29.84 32.6572 24.89 35.6816 21.46Z" fill="#010203"/>
<path d="M51.5755 26.03C52.3592 26.05 53.9265 26.1 54.7102 26.13C55.6041 27.03 56.498 27.92 57.4041 28.82C57.2939 29.98 57.1959 31.15 57.098 32.31C57.0367 33 57.0122 33.69 56.951 34.38C56.4857 36.6 57.6367 40.17 53.8776 40.64C50.0939 40.56 50.0571 37.08 49.1388 34.88C49.6653 34.5 50.7061 33.73 51.2327 33.35C52.3347 33.51 54.551 33.82 55.6531 33.98C53.6939 33.12 50.6816 33 50.0327 30.92C49.0531 29.17 50.8041 27.57 51.5755 26.03Z" fill="#D9D9D8"/>
<path d="M3.42858 28.85C4.29797 26.64 7.49388 27.7 9.4898 26.96C10.4694 29.07 10.5918 32.43 7.29797 33.15C4.20001 34.66 2.41225 30.77 3.42858 28.85Z" fill="#DBDBDB"/>
<path d="M2.66939 38.3C1.56735 34.45 6.68572 33.78 9.77143 32.56C9.90613 33.23 10.2 34.59 10.3469 35.26C10.1265 36.63 10.0286 38.01 9.88164 39.39C8.19184 39.84 6.47755 40.32 4.67755 40.21L3.83266 40.12C3.55102 39.67 2.96327 38.75 2.66939 38.3Z" fill="#D2D7DA"/>
<path d="M9.88164 39.39C10.0286 38.01 10.1265 36.63 10.3469 35.26C10.4204 36.93 10.2857 38.61 10.298 40.28C8.96327 40.5 7.61633 40.66 6.26939 40.82C5.80409 44.15 7.34694 47.26 10.298 49.5C15.3184 49.4 20.3633 49.71 25.3714 49.27L25.151 50.18C25.249 51.2 25.4449 53.23 25.5429 54.25C25.3837 54.37 25.0653 54.6 24.8939 54.71C24.7714 53.25 24.6123 51.79 24.4163 50.34L24.3184 49.75C20.9143 49.84 17.5592 50.37 14.2898 51.13C13.0286 55.18 12.3918 60.32 17.0694 63.11C13.0408 63.03 9.01225 63.03 4.98368 63.23C5.51021 59.08 6.58776 54.97 6.42858 50.78C8.06939 47.65 5.38776 44.24 5.81633 40.92C5.32653 40.72 4.3347 40.32 3.83266 40.12L4.67755 40.21C6.47755 40.32 8.19184 39.84 9.88164 39.39Z" fill="#010100"/>
<path d="M49.1388 34.88C50.0571 37.08 50.0939 40.56 53.8775 40.64C57.6367 40.17 56.4857 36.6 56.951 34.38C59.5469 37.1 57.5633 40.23 54.1837 41.58C54.0367 44.42 53.3755 47.22 51.6857 49.73C48.5633 49.59 45.4408 49.56 42.3306 49.57C39.8449 49.55 37.3592 49.67 34.8857 49.78L33.9306 49.81C31.0041 49.95 28.0775 50.08 25.151 50.18L25.3714 49.27C33.5265 48.2 41.8163 49.95 49.9592 48.81C52.5061 47.27 52.8857 44.6 53.1184 42.23C50.4122 40.39 48.1469 37.93 49.1388 34.88Z" fill="#ADA093"/>
<path d="M18.1469 38.58C25.3714 41.7 34.2123 41.4 41.6816 38.98C36.049 44.66 23.4367 44.53 18.1469 38.58Z" fill="#010100"/>
<path d="M10.1755 46.79C17.7918 46.25 25.4449 46.66 33.0857 46.57C38.6816 46.66 44.3388 46.11 49.8735 46.98C47.5224 48.56 44.3633 48.11 41.5469 48.17C33.0245 48.01 24.502 48.13 15.9796 48.15C14.0694 47.85 11.0939 48.72 10.1755 46.79Z" fill="#FCFBFA"/>
<path d="M14.2898 51.13C17.5592 50.37 20.9143 49.84 24.3184 49.75L24.4163 50.34C22.6653 50.73 20.7551 50.86 19.1755 51.64C18.502 55.44 17.5592 60 20.9265 63.17C19.9714 63.15 18.0367 63.13 17.0694 63.11C12.3918 60.32 13.0286 55.18 14.2898 51.13Z" fill="#242424"/>
<path d="M25.151 50.18C28.0776 50.08 31.0041 49.95 33.9306 49.81C34.1878 54.5 36.1837 58.9 38.0449 63.28C32.6939 63.47 27.3429 63.45 21.9918 63.25C22.9837 60.41 24.1102 57.6 24.8939 54.71C25.0653 54.6 25.3837 54.37 25.5429 54.25C25.4449 53.23 25.249 51.2 25.151 50.18Z" fill="#FEFEFE"/>
<path d="M33.9306 49.81L34.8857 49.78C36.9796 50.31 39.0245 50.92 41.0816 51.52C42.6857 55.45 42.3551 59.62 39.4898 63.1C40.249 63.08 41.7551 63.03 42.5143 63C46.6898 62.98 50.8531 62.99 55.0286 63.19C38.3755 63.76 21.649 63.61 4.98367 63.23C9.01224 63.03 13.0408 63.03 17.0694 63.11C18.0367 63.13 19.9714 63.15 20.9265 63.17C17.5592 60 18.502 55.44 19.1755 51.64C20.7551 50.86 22.6653 50.73 24.4163 50.34C24.6122 51.79 24.7714 53.25 24.8939 54.71C24.1102 57.6 22.9837 60.41 21.9918 63.25C27.3429 63.45 32.6939 63.47 38.0449 63.28C36.1837 58.9 34.1878 54.5 33.9306 49.81Z" fill="#464847"/>
<path d="M34.8857 49.78C37.3592 49.67 39.8449 49.55 42.3306 49.57C43.8 50.19 45.2449 50.85 46.702 51.51C46.2367 54.84 45.9796 58.19 45.9061 61.54C44.7796 62.04 43.6531 62.53 42.5143 63C41.7551 63.03 40.249 63.08 39.4898 63.1C42.3551 59.62 42.6857 55.45 41.0816 51.52C39.0245 50.92 36.9796 50.31 34.8857 49.78Z" fill="#212121"/>
<path d="M42.3306 49.57C45.4408 49.56 48.5633 49.59 51.6857 49.73L53.2653 49.8C53.1306 54.31 54.2449 58.75 55.0286 63.19C50.8531 62.99 46.6898 62.98 42.5143 63C43.6531 62.53 44.7796 62.04 45.9061 61.54C45.9796 58.19 46.2367 54.84 46.702 51.51C45.2449 50.85 43.8 50.19 42.3306 49.57Z" fill="#010202"/>
</g>
<defs>
<clipPath id="clip0_3_2">
<rect width="60" height="66" fill="white"/>
</clipPath>
</defs>
</svg>
